{
  "accessors": [
    {
      "bufferView": 2,
      "componentType": 5126,
      "count": 8627,
      "max": [
        8.321413040161133,
        0.016648082062602043,
        6.575189113616943
      ],
      "min": [
        -17.8281307220459,
        -2.092843770980835,
        -6.948096752166748
      ],
      "type": "VEC3"
    },
    {
      "bufferView": 2,
      "byteOffset": 103524,
      "componentType": 5126,
      "count": 8627,
      "max": [
        0.9999606609344482,
        1.0,
        0.9999908208847046
      ],
      "min": [
        -0.9999788999557495,
        -1.0,
        -0.9999791383743286
      ],
      "type": "VEC3"
    },
    {
      "bufferView": 3,
      "componentType": 5126,
      "count": 8627,
      "max": [
        0.9998375773429871,
        1.0,
        0.9994398355484009,
        1.0
      ],
      "min": [
        -0.9999500513076782,
        -1.0,
        -0.9997694492340088,
        1.0
      ],
      "type": "VEC4"
    },
    {
      "bufferView": 1,
      "componentType": 5126,
      "count": 8627,
      "max": [
        0.9993895292282104,
        0.9988909363746643
      ],
      "min": [
        0.000922046834602952,
        0.0011090404586866498
      ],
      "type": "VEC2"
    },
    {
      "bufferView": 0,
      "componentType": 5125,
      "count": 37014,
      "type": "SCALAR"
    }
  ],
  "asset": {
    "extras": {
      "author": "SusanKing (https://sketchfab.com/krolzuzannapl)",
      "license": "CC-BY-4.0 (http://creativecommons.org/licenses/by/4.0/)",
      "source": "https://sketchfab.com/3d-models/old-key-69e71d81492548de88edb7f81065d80c",
      "title": "Old key"
    },
    "generator": "Sketchfab-12.66.0",
    "version": "2.0"
  },
  "bufferViews": [
    {
      "buffer": 0,
      "byteLength": 148056,
      "name": "floatBufferViews",
      "target": 34963
    },
    {
      "buffer": 0,
      "byteLength": 69016,
      "byteOffset": 148056,
      "byteStride": 8,
      "name": "floatBufferViews",
      "target": 34962
    },
    {
      "buffer": 0,
      "byteLength": 207048,
      "byteOffset": 217072,
      "byteStride": 12,
      "name": "floatBufferViews",
      "target": 34962
    },
    {
      "buffer": 0,
      "byteLength": 138032,
      "byteOffset": 424120,
      "byteStride": 16,
      "name": "floatBufferViews",
      "target": 34962
    }
  ],
  "buffers": [
    {
      "byteLength": 562152,
      "uri": "scene.bin"
    }
  ],
  "images": [
    {
      "uri": "textures/material_baseColor.jpeg"
    },
    {
      "uri": "textures/material_metallicRoughness.png"
    },
    {
      "uri": "textures/material_normal.png"
    }
  ],
  "materials": [
    {
      "doubleSided": true,
      "name": "material",
      "normalTexture": {
        "index": 2
      },
      "occlusionTexture": {
        "index": 1
      },
      "pbrMetallicRoughness": {
        "baseColorTexture": {
          "index": 0
        },
        "metallicRoughnessTexture": {
          "index": 1
        }
      }
    }
  ],
  "meshes": [
    {
      "name": "key_key_0",
      "primitives": [
        {
          "attributes": {
            "NORMAL": 1,
            "POSITION": 0,
            "TANGENT": 2,
            "TEXCOORD_0": 3
          },
          "indices": 4,
          "material": 0,
          "mode": 4
        }
      ]
    }
  ],
  "nodes": [
    {
      "children": [
        1
      ],
      "matrix": [
        1.0,
        0.0,
        0.0,
        0.0,
        0.0,
        2.220446049250313e-16,
        -1.0,
        0.0,
        0.0,
        1.0,
        2.220446049250313e-16,
        0.0,
        0.0,
        0.0,
        0.0,
        1.0
      ],
      "name": "Sketchfab_model"
    },
    {
      "children": [
        2
      ],
      "matrix": [
        1.0,
        0.0,
        0.0,
        0.0,
        0.0,
        0.0,
        1.0,
        0.0,
        0.0,
        -1.0,
        0.0,
        0.0,
        0.0,
        0.0,
        0.0,
        1.0
      ],
      "name": "053356857acd49259c8fdb55a446566c.fbx"
    },
    {
      "children": [
        3
      ],
      "name": "RootNode"
    },
    {
      "children": [
        4
      ],
      "matrix": [
        -0.08097497211079181,
        -0.009517521662288458,
        -0.22439607204236062,
        0.0,
        0.027869890832550714,
        -0.23711671965037345,
        -5.219939701177279e-10,
        0.0,
        -0.22286179703524578,
        -0.02619441600674985,
        0.08153232609976983,
        0.0,
        0.0,
        -7.275957614183426e-10,
        2.9103830456733704e-09,
        1.0
      ],
      "name": "key"
    },
    {
      "mesh": 0,
      "name": "key_key_0"
    }
  ],
  "samplers": [
    {
      "magFilter": 9729,
      "minFilter": 9987,
      "wrapS": 10497,
      "wrapT": 10497
    }
  ],
  "scene": 0,
  "scenes": [
    {
      "name": "Sketchfab_Scene",
      "nodes": [
        0
      ]
    }
  ],
  "textures": [
    {
      "sampler": 0,
      "source": 0
    },
    {
      "sampler": 0,
      "source": 1
    },
    {
      "sampler": 0,
      "source": 2
    }
  ]
}
